<svg xmlns="http://www.w3.org/2000/svg" xmlns:xlink="http://www.w3.org/1999/xlink" width="256" zoomAndPan="magnify" viewBox="0 0 192 191.999996" height="256" preserveAspectRatio="xMidYMid meet" version="1.0"><defs><clipPath id="945da7904d"><path d="M 96 -39.765625 L 231.765625 96 L 96 231.765625 L -39.765625 96 Z M 96 -39.765625 " clip-rule="nonzero"/></clipPath><clipPath id="5757dc4c07"><path d="M 32 25 L 185 25 L 185 167 L 32 167 Z M 32 25 " clip-rule="nonzero"/></clipPath><clipPath id="189c5f01ef"><path d="M 96 -39.765625 L 231.765625 96 L 96 231.765625 L -39.765625 96 Z M 96 -39.765625 " clip-rule="nonzero"/></clipPath><clipPath id="d8a730731d"><path d="M 231.765625 96 L 96 -39.765625 L -39.765625 96 L 96 231.765625 Z M 231.765625 96 " clip-rule="nonzero"/></clipPath><clipPath id="dcbc32d25a"><path d="M 231.765625 96 L 96 -39.765625 L -39.765625 96 L 96 231.765625 Z M 231.765625 96 " clip-rule="nonzero"/></clipPath><clipPath id="b7e8786952"><rect x="0" width="192" y="0" height="192"/></clipPath></defs><g clip-path="url(#945da7904d)"><g transform="matrix(1, 0, 0, 1, 0, 0)"><g clip-path="url(#b7e8786952)"><g clip-path="url(#5757dc4c07)"><g clip-path="url(#189c5f01ef)"><g clip-path="url(#d8a730731d)"><g clip-path="url(#dcbc32d25a)"><path fill="#000000" d="M 35.765625 28.957031 C 35.324219 29.402344 34.917969 29.886719 34.554688 30.398438 C 34.1875 30.910156 33.867188 31.449219 33.585938 32.015625 C 33.308594 32.578125 33.074219 33.164062 32.890625 33.765625 C 32.703125 34.367188 32.566406 34.976562 32.480469 35.601562 C 32.390625 36.226562 32.351562 36.851562 32.363281 37.480469 C 32.378906 38.113281 32.4375 38.734375 32.550781 39.355469 C 32.664062 39.976562 32.824219 40.582031 33.03125 41.175781 C 33.242188 41.769531 33.496094 42.34375 33.796875 42.898438 L 33.871094 43.035156 L 63.65625 95.984375 L 33.871094 148.933594 L 33.796875 149.070312 C 33.496094 149.625 33.242188 150.199219 33.035156 150.792969 C 32.824219 151.386719 32.664062 151.992188 32.550781 152.613281 C 32.441406 153.230469 32.378906 153.855469 32.367188 154.484375 C 32.355469 155.117188 32.390625 155.742188 32.480469 156.367188 C 32.570312 156.988281 32.707031 157.601562 32.890625 158.203125 C 33.078125 158.804688 33.308594 159.390625 33.589844 159.953125 C 33.867188 160.519531 34.191406 161.058594 34.554688 161.570312 C 34.917969 162.082031 35.324219 162.5625 35.765625 163.011719 L 35.925781 163.171875 C 36.355469 163.613281 36.820312 164.015625 37.316406 164.386719 C 37.8125 164.753906 38.335938 165.082031 38.882812 165.367188 C 39.429688 165.652344 39.996094 165.894531 40.582031 166.09375 C 41.167969 166.289062 41.761719 166.441406 42.371094 166.546875 C 42.980469 166.648438 43.59375 166.707031 44.210938 166.714844 C 44.828125 166.722656 45.445312 166.679688 46.054688 166.59375 C 46.667969 166.503906 47.269531 166.371094 47.859375 166.1875 C 48.449219 166.003906 49.019531 165.777344 49.574219 165.503906 L 177.453125 106.824219 C 177.492188 106.808594 177.527344 106.789062 177.566406 106.765625 C 178.574219 106.273438 179.496094 105.652344 180.332031 104.898438 C 181.164062 104.148438 181.882812 103.296875 182.476562 102.34375 C 183.074219 101.394531 183.527344 100.378906 183.835938 99.296875 C 184.148438 98.21875 184.304688 97.117188 184.304688 95.996094 C 184.304688 94.871094 184.152344 93.769531 183.84375 92.691406 C 183.535156 91.609375 183.085938 90.59375 182.492188 89.640625 C 181.898438 88.6875 181.1875 87.832031 180.351562 87.078125 C 179.519531 86.328125 178.597656 85.703125 177.589844 85.207031 L 177.480469 85.148438 L 49.574219 26.464844 C 49.011719 26.1875 48.429688 25.957031 47.832031 25.773438 C 47.230469 25.589844 46.621094 25.453125 46 25.367188 C 45.378906 25.28125 44.753906 25.242188 44.128906 25.257812 C 43.5 25.269531 42.878906 25.332031 42.261719 25.441406 C 41.644531 25.554688 41.039062 25.710938 40.445312 25.921875 C 39.855469 26.128906 39.285156 26.378906 38.730469 26.679688 C 38.179688 26.976562 37.65625 27.316406 37.15625 27.699219 C 36.660156 28.082031 36.195312 28.5 35.765625 28.957031 Z M 35.765625 28.957031 " fill-opacity="1" fill-rule="nonzero"/></g></g></g></g></g></g></g></svg>