<svg xmlns="http://www.w3.org/2000/svg" xmlns:xlink="http://www.w3.org/1999/xlink" width="256" zoomAndPan="magnify" viewBox="0 0 192 191.999996" height="256" preserveAspectRatio="xMidYMid meet" version="1.0"><defs><clipPath id="9fa0475ed6"><path d="M 43.957031 -29.394531 L 221.394531 43.957031 L 148.042969 221.394531 L -29.394531 148.042969 Z M 43.957031 -29.394531 " clip-rule="nonzero"/></clipPath><clipPath id="0d048ce036"><path d="M 13 49 L 179 49 L 179 183 L 13 183 Z M 13 49 " clip-rule="nonzero"/></clipPath><clipPath id="aea83ffe84"><path d="M 43.957031 -29.394531 L 221.394531 43.957031 L 148.042969 221.394531 L -29.394531 148.042969 Z M 43.957031 -29.394531 " clip-rule="nonzero"/></clipPath><clipPath id="3374295390"><path d="M 221.394531 43.957031 L 43.957031 -29.394531 L -29.394531 148.042969 L 148.042969 221.394531 Z M 221.394531 43.957031 " clip-rule="nonzero"/></clipPath><clipPath id="d106eb3cf9"><path d="M 221.394531 43.957031 L 43.957031 -29.394531 L -29.394531 148.042969 L 148.042969 221.394531 Z M 221.394531 43.957031 " clip-rule="nonzero"/></clipPath><clipPath id="9e90712818"><rect x="0" width="192" y="0" height="192"/></clipPath></defs><g clip-path="url(#9fa0475ed6)"><g transform="matrix(1, 0, 0, 1, 0, 0)"><g clip-path="url(#9e90712818)"><g clip-path="url(#0d048ce036)"><g clip-path="url(#aea83ffe84)"><g clip-path="url(#3374295390)"><g clip-path="url(#d106eb3cf9)"><path fill="#000000" d="M 14.664062 57.167969 C 14.429688 57.753906 14.242188 58.351562 14.101562 58.964844 C 13.960938 59.578125 13.867188 60.199219 13.828125 60.828125 C 13.785156 61.457031 13.792969 62.085938 13.851562 62.710938 C 13.910156 63.339844 14.019531 63.957031 14.179688 64.566406 C 14.335938 65.175781 14.542969 65.769531 14.792969 66.347656 C 15.046875 66.921875 15.34375 67.476562 15.683594 68.007812 C 16.023438 68.535156 16.40625 69.035156 16.828125 69.503906 C 17.246094 69.972656 17.703125 70.402344 18.191406 70.800781 L 18.316406 70.898438 L 66.121094 108.382812 L 58.910156 168.703125 L 58.894531 168.859375 C 58.828125 169.488281 58.8125 170.113281 58.847656 170.742188 C 58.882812 171.371094 58.96875 171.996094 59.101562 172.609375 C 59.234375 173.226562 59.417969 173.824219 59.648438 174.410156 C 59.878906 174.996094 60.152344 175.5625 60.472656 176.105469 C 60.792969 176.644531 61.15625 177.160156 61.558594 177.644531 C 61.960938 178.128906 62.398438 178.578125 62.871094 178.992188 C 63.347656 179.40625 63.851562 179.78125 64.382812 180.117188 C 64.917969 180.449219 65.476562 180.738281 66.054688 180.984375 L 66.265625 181.070312 C 66.832031 181.3125 67.417969 181.507812 68.015625 181.65625 C 68.613281 181.804688 69.222656 181.910156 69.835938 181.964844 C 70.453125 182.019531 71.066406 182.023438 71.683594 181.980469 C 72.300781 181.941406 72.910156 181.851562 73.511719 181.714844 C 74.113281 181.578125 74.703125 181.394531 75.277344 181.164062 C 75.851562 180.933594 76.402344 180.660156 76.933594 180.347656 C 77.464844 180.03125 77.964844 179.675781 78.441406 179.28125 C 78.917969 178.886719 79.359375 178.457031 79.765625 177.992188 L 175.378906 74.773438 C 175.410156 74.742188 175.4375 74.710938 175.460938 74.675781 C 176.203125 73.835938 176.816406 72.90625 177.300781 71.890625 C 177.785156 70.878906 178.117188 69.816406 178.304688 68.710938 C 178.488281 67.601562 178.515625 66.492188 178.390625 65.375 C 178.261719 64.257812 177.984375 63.183594 177.554688 62.144531 C 177.125 61.105469 176.5625 60.148438 175.863281 59.269531 C 175.167969 58.390625 174.359375 57.621094 173.445312 56.96875 C 172.535156 56.316406 171.546875 55.800781 170.488281 55.425781 C 169.429688 55.046875 168.339844 54.824219 167.222656 54.753906 L 167.09375 54.742188 L 26.464844 49.574219 C 25.839844 49.53125 25.214844 49.542969 24.589844 49.605469 C 23.964844 49.664062 23.347656 49.773438 22.742188 49.929688 C 22.136719 50.089844 21.542969 50.292969 20.96875 50.546875 C 20.394531 50.796875 19.84375 51.09375 19.316406 51.433594 C 18.789062 51.773438 18.292969 52.152344 17.828125 52.570312 C 17.359375 52.988281 16.929688 53.441406 16.53125 53.929688 C 16.136719 54.414062 15.785156 54.929688 15.46875 55.472656 C 15.15625 56.019531 14.890625 56.582031 14.664062 57.167969 Z M 14.664062 57.167969 " fill-opacity="1" fill-rule="nonzero"/></g></g></g></g></g></g></g></svg>