<svg xmlns="http://www.w3.org/2000/svg" xmlns:xlink="http://www.w3.org/1999/xlink" width="256" zoomAndPan="magnify" viewBox="0 0 192 191.999996" height="256" preserveAspectRatio="xMidYMid meet" version="1.0"><defs><clipPath id="5817830528"><path d="M 148.019531 -29.402344 L 221.402344 148.019531 L 43.980469 221.402344 L -29.402344 43.980469 Z M 148.019531 -29.402344 " clip-rule="nonzero"/></clipPath><clipPath id="91d60abdac"><path d="M 13 9 L 179 9 L 179 143 L 13 143 Z M 13 9 " clip-rule="nonzero"/></clipPath><clipPath id="6e3de0884e"><path d="M 148.019531 -29.402344 L 221.402344 148.019531 L 43.980469 221.402344 L -29.402344 43.980469 Z M 148.019531 -29.402344 " clip-rule="nonzero"/></clipPath><clipPath id="dec466a916"><path d="M 221.402344 148.019531 L 148.019531 -29.402344 L -29.402344 43.980469 L 43.980469 221.402344 Z M 221.402344 148.019531 " clip-rule="nonzero"/></clipPath><clipPath id="1525eab1c6"><path d="M 221.402344 148.019531 L 148.019531 -29.402344 L -29.402344 43.980469 L 43.980469 221.402344 Z M 221.402344 148.019531 " clip-rule="nonzero"/></clipPath><clipPath id="6ee8481208"><rect x="0" width="192" y="0" height="192"/></clipPath></defs><g clip-path="url(#5817830528)"><g transform="matrix(1, 0, 0, 1, 0, 0)"><g clip-path="url(#6ee8481208)"><g clip-path="url(#91d60abdac)"><g clip-path="url(#6e3de0884e)"><g clip-path="url(#dec466a916)"><g clip-path="url(#1525eab1c6)"><path fill="#000000" d="M 66.050781 10.992188 C 65.46875 11.238281 64.914062 11.527344 64.378906 11.859375 C 63.84375 12.195312 63.339844 12.570312 62.867188 12.984375 C 62.390625 13.398438 61.953125 13.847656 61.550781 14.332031 C 61.148438 14.816406 60.789062 15.332031 60.46875 15.871094 C 60.148438 16.414062 59.871094 16.980469 59.644531 17.566406 C 59.414062 18.152344 59.230469 18.753906 59.097656 19.367188 C 58.960938 19.984375 58.878906 20.605469 58.84375 21.234375 C 58.808594 21.863281 58.824219 22.492188 58.890625 23.117188 L 58.90625 23.273438 L 66.128906 83.59375 L 18.332031 121.089844 L 18.210938 121.1875 C 17.722656 121.582031 17.265625 122.015625 16.84375 122.484375 C 16.425781 122.953125 16.042969 123.453125 15.703125 123.980469 C 15.363281 124.511719 15.066406 125.066406 14.8125 125.640625 C 14.5625 126.21875 14.355469 126.8125 14.199219 127.421875 C 14.042969 128.03125 13.933594 128.648438 13.875 129.277344 C 13.816406 129.902344 13.804688 130.53125 13.847656 131.160156 C 13.890625 131.789062 13.980469 132.410156 14.121094 133.023438 C 14.261719 133.636719 14.449219 134.234375 14.6875 134.820312 L 14.773438 135.027344 C 15.003906 135.601562 15.277344 136.152344 15.59375 136.683594 C 15.910156 137.210938 16.265625 137.714844 16.664062 138.1875 C 17.058594 138.664062 17.488281 139.101562 17.953125 139.507812 C 18.417969 139.917969 18.914062 140.285156 19.433594 140.613281 C 19.957031 140.941406 20.503906 141.230469 21.070312 141.472656 C 21.636719 141.71875 22.222656 141.917969 22.820312 142.070312 C 23.417969 142.222656 24.023438 142.328125 24.640625 142.382812 C 25.253906 142.441406 25.871094 142.453125 26.488281 142.414062 L 167.089844 137.207031 C 167.132812 137.207031 167.175781 137.203125 167.214844 137.195312 C 168.335938 137.128906 169.425781 136.90625 170.484375 136.53125 C 171.542969 136.160156 172.53125 135.644531 173.445312 134.996094 C 174.359375 134.34375 175.167969 133.578125 175.871094 132.703125 C 176.570312 131.824219 177.136719 130.867188 177.566406 129.828125 C 178 128.792969 178.277344 127.714844 178.410156 126.601562 C 178.539062 125.484375 178.511719 124.375 178.328125 123.265625 C 178.144531 122.15625 177.8125 121.09375 177.332031 120.082031 C 176.851562 119.066406 176.242188 118.136719 175.5 117.292969 L 175.417969 117.195312 L 79.761719 13.980469 C 79.347656 13.511719 78.898438 13.074219 78.414062 12.675781 C 77.929688 12.277344 77.417969 11.917969 76.878906 11.601562 C 76.335938 11.28125 75.777344 11.007812 75.191406 10.78125 C 74.609375 10.550781 74.007812 10.371094 73.394531 10.234375 C 72.785156 10.101562 72.164062 10.019531 71.539062 9.984375 C 70.910156 9.949219 70.285156 9.960938 69.664062 10.027344 C 69.039062 10.089844 68.425781 10.203125 67.816406 10.367188 C 67.210938 10.527344 66.621094 10.738281 66.050781 10.992188 Z M 66.050781 10.992188 " fill-opacity="1" fill-rule="nonzero"/></g></g></g></g></g></g></g></svg>