<svg xmlns="http://www.w3.org/2000/svg" xmlns:xlink="http://www.w3.org/1999/xlink" width="256" zoomAndPan="magnify" viewBox="0 0 192 191.999996" height="256" preserveAspectRatio="xMidYMid meet" version="1.0"><defs><clipPath id="5339171ab2"><path d="M 25 7 L 167 7 L 167 160 L 25 160 Z M 25 7 " clip-rule="nonzero"/></clipPath><clipPath id="5d297558df"><path d="M 96 -39.765625 L 231.765625 96 L 96 231.765625 L -39.765625 96 Z M 96 -39.765625 " clip-rule="nonzero"/></clipPath><clipPath id="8a235ea163"><path d="M 96 -39.765625 L 231.765625 96 L 96 231.765625 L -39.765625 96 Z M 96 -39.765625 " clip-rule="nonzero"/></clipPath><clipPath id="22266e6b78"><path d="M 96 -39.765625 L 231.765625 96 L 96 231.765625 L -39.765625 96 Z M 96 -39.765625 " clip-rule="nonzero"/></clipPath></defs><g clip-path="url(#5339171ab2)"><g clip-path="url(#5d297558df)"><g clip-path="url(#8a235ea163)"><g clip-path="url(#22266e6b78)"><path fill="#000000" d="M 163.042969 156.234375 C 162.597656 156.675781 162.113281 157.082031 161.601562 157.445312 C 161.089844 157.8125 160.550781 158.132812 159.984375 158.414062 C 159.421875 158.691406 158.835938 158.925781 158.234375 159.109375 C 157.632812 159.296875 157.023438 159.433594 156.398438 159.519531 C 155.773438 159.609375 155.148438 159.648438 154.519531 159.636719 C 153.886719 159.621094 153.265625 159.5625 152.644531 159.449219 C 152.023438 159.335938 151.417969 159.175781 150.824219 158.96875 C 150.230469 158.757812 149.65625 158.503906 149.101562 158.203125 L 148.964844 158.128906 L 96.015625 128.34375 L 43.066406 158.128906 L 42.929688 158.203125 C 42.375 158.503906 41.800781 158.757812 41.207031 158.964844 C 40.613281 159.175781 40.007812 159.335938 39.386719 159.449219 C 38.769531 159.558594 38.144531 159.621094 37.515625 159.632812 C 36.882812 159.644531 36.257812 159.609375 35.632812 159.519531 C 35.011719 159.429688 34.398438 159.292969 33.796875 159.109375 C 33.195312 158.921875 32.609375 158.691406 32.046875 158.410156 C 31.480469 158.132812 30.941406 157.808594 30.429688 157.445312 C 29.917969 157.082031 29.4375 156.675781 28.988281 156.234375 L 28.828125 156.074219 C 28.386719 155.644531 27.984375 155.179688 27.613281 154.683594 C 27.246094 154.1875 26.917969 153.664062 26.632812 153.117188 C 26.347656 152.570312 26.105469 152.003906 25.90625 151.417969 C 25.710938 150.832031 25.558594 150.238281 25.453125 149.628906 C 25.351562 149.019531 25.292969 148.40625 25.285156 147.789062 C 25.277344 147.171875 25.320312 146.554688 25.40625 145.945312 C 25.496094 145.332031 25.628906 144.730469 25.8125 144.140625 C 25.996094 143.550781 26.222656 142.980469 26.496094 142.425781 L 85.175781 14.546875 C 85.191406 14.507812 85.210938 14.472656 85.234375 14.433594 C 85.726562 13.425781 86.347656 12.503906 87.101562 11.667969 C 87.851562 10.835938 88.703125 10.117188 89.65625 9.523438 C 90.605469 8.925781 91.621094 8.472656 92.703125 8.164062 C 93.78125 7.851562 94.882812 7.695312 96.003906 7.695312 C 97.128906 7.695312 98.230469 7.847656 99.308594 8.15625 C 100.390625 8.464844 101.40625 8.914062 102.359375 9.507812 C 103.3125 10.101562 104.167969 10.8125 104.921875 11.648438 C 105.671875 12.480469 106.296875 13.402344 106.792969 14.410156 L 106.851562 14.519531 L 165.535156 142.425781 C 165.8125 142.988281 166.042969 143.570312 166.226562 144.167969 C 166.410156 144.769531 166.546875 145.378906 166.632812 146 C 166.71875 146.621094 166.757812 147.246094 166.742188 147.871094 C 166.730469 148.5 166.667969 149.121094 166.558594 149.738281 C 166.445312 150.355469 166.289062 150.960938 166.078125 151.554688 C 165.871094 152.144531 165.621094 152.714844 165.320312 153.269531 C 165.023438 153.820312 164.683594 154.34375 164.300781 154.84375 C 163.917969 155.339844 163.5 155.804688 163.042969 156.234375 Z M 163.042969 156.234375 " fill-opacity="1" fill-rule="nonzero"/></g></g></g></g></svg>