<svg xmlns="http://www.w3.org/2000/svg" xmlns:xlink="http://www.w3.org/1999/xlink" width="256" zoomAndPan="magnify" viewBox="0 0 192 191.999996" height="256" preserveAspectRatio="xMidYMid meet" version="1.0"><defs><clipPath id="07af31dbc1"><rect x="0" width="192" y="0" height="192"/></clipPath></defs><g transform="matrix(1, 0, 0, 1, 0, 0)"><g clip-path="url(#07af31dbc1)"><path fill="#000000" d="M 6 91.183594 C 6.003906 91.816406 6.058594 92.441406 6.164062 93.0625 C 6.269531 93.683594 6.421875 94.292969 6.621094 94.886719 C 6.824219 95.484375 7.074219 96.0625 7.367188 96.617188 C 7.660156 97.175781 7.996094 97.707031 8.375 98.207031 C 8.753906 98.710938 9.171875 99.179688 9.625 99.617188 C 10.078125 100.054688 10.5625 100.453125 11.082031 100.8125 C 11.597656 101.171875 12.140625 101.488281 12.710938 101.757812 C 13.277344 102.03125 13.863281 102.257812 14.46875 102.433594 L 14.617188 102.480469 L 73.117188 118.859375 L 89.496094 177.359375 L 89.542969 177.511719 C 89.722656 178.113281 89.945312 178.699219 90.21875 179.265625 C 90.492188 179.835938 90.808594 180.378906 91.167969 180.894531 C 91.527344 181.414062 91.921875 181.898438 92.359375 182.351562 C 92.796875 182.804688 93.265625 183.222656 93.769531 183.601562 C 94.273438 183.980469 94.804688 184.316406 95.359375 184.609375 C 95.917969 184.902344 96.492188 185.152344 97.089844 185.351562 C 97.6875 185.554688 98.296875 185.707031 98.917969 185.8125 C 99.539062 185.917969 100.164062 185.972656 100.792969 185.976562 L 101.015625 185.976562 C 101.636719 185.984375 102.25 185.941406 102.859375 185.851562 C 103.472656 185.761719 104.070312 185.621094 104.660156 185.4375 C 105.25 185.253906 105.824219 185.023438 106.375 184.75 C 106.929688 184.476562 107.457031 184.160156 107.960938 183.804688 C 108.464844 183.445312 108.941406 183.050781 109.382812 182.621094 C 109.824219 182.191406 110.230469 181.726562 110.601562 181.234375 C 110.96875 180.738281 111.300781 180.21875 111.589844 179.671875 C 111.875 179.125 112.121094 178.558594 112.320312 177.976562 L 161.25 46.058594 C 161.265625 46.019531 161.277344 45.980469 161.289062 45.9375 C 161.652344 44.875 161.867188 43.785156 161.925781 42.664062 C 161.984375 41.539062 161.886719 40.433594 161.636719 39.339844 C 161.382812 38.242188 160.984375 37.207031 160.441406 36.222656 C 159.898438 35.238281 159.230469 34.351562 158.4375 33.554688 C 157.644531 32.761719 156.757812 32.089844 155.773438 31.542969 C 154.792969 31 153.757812 30.597656 152.664062 30.34375 C 151.570312 30.089844 150.460938 29.988281 149.339844 30.046875 C 148.21875 30.101562 147.125 30.3125 146.0625 30.675781 L 145.941406 30.710938 L 14.003906 79.65625 C 13.410156 79.859375 12.835938 80.109375 12.28125 80.402344 C 11.726562 80.695312 11.199219 81.03125 10.699219 81.410156 C 10.199219 81.789062 9.730469 82.203125 9.296875 82.65625 C 8.863281 83.109375 8.464844 83.59375 8.109375 84.105469 C 7.75 84.621094 7.4375 85.164062 7.164062 85.726562 C 6.890625 86.292969 6.667969 86.875 6.488281 87.476562 C 6.308594 88.078125 6.179688 88.691406 6.097656 89.3125 C 6.015625 89.933594 5.984375 90.558594 6 91.183594 Z M 6 91.183594 " fill-opacity="1" fill-rule="nonzero"/></g></g></svg>