<svg xmlns="http://www.w3.org/2000/svg" xmlns:xlink="http://www.w3.org/1999/xlink" width="256" zoomAndPan="magnify" viewBox="0 0 192 191.999996" height="256" preserveAspectRatio="xMidYMid meet" version="1.0"><defs><clipPath id="b09c645fba"><path d="M 9 13 L 143 13 L 143 179 L 9 179 Z M 9 13 " clip-rule="nonzero"/></clipPath><clipPath id="b2f557cd23"><path d="M 148.019531 -29.402344 L 221.402344 148.019531 L 43.980469 221.402344 L -29.402344 43.980469 Z M 148.019531 -29.402344 " clip-rule="nonzero"/></clipPath><clipPath id="4a7ed7ecf9"><path d="M 148.019531 -29.402344 L 221.402344 148.019531 L 43.980469 221.402344 L -29.402344 43.980469 Z M 148.019531 -29.402344 " clip-rule="nonzero"/></clipPath><clipPath id="960997dd4d"><path d="M 148.019531 -29.402344 L 221.402344 148.019531 L 43.980469 221.402344 L -29.402344 43.980469 Z M 148.019531 -29.402344 " clip-rule="nonzero"/></clipPath></defs><g clip-path="url(#b09c645fba)"><g clip-path="url(#b2f557cd23)"><g clip-path="url(#4a7ed7ecf9)"><g clip-path="url(#960997dd4d)"><path fill="#000000" d="M 134.847656 177.328125 C 134.265625 177.5625 133.667969 177.75 133.050781 177.890625 C 132.4375 178.03125 131.816406 178.125 131.1875 178.164062 C 130.558594 178.207031 129.933594 178.199219 129.304688 178.140625 C 128.679688 178.082031 128.058594 177.972656 127.449219 177.816406 C 126.839844 177.65625 126.246094 177.453125 125.671875 177.199219 C 125.09375 176.949219 124.539062 176.652344 124.011719 176.308594 C 123.480469 175.96875 122.980469 175.589844 122.511719 175.167969 C 122.042969 174.746094 121.613281 174.292969 121.214844 173.800781 L 121.117188 173.679688 L 83.621094 125.882812 L 23.300781 133.105469 L 23.148438 133.121094 C 22.519531 133.1875 21.894531 133.203125 21.265625 133.167969 C 20.636719 133.132812 20.011719 133.046875 19.398438 132.914062 C 18.78125 132.78125 18.183594 132.597656 17.597656 132.367188 C 17.007812 132.136719 16.445312 131.863281 15.902344 131.542969 C 15.359375 131.222656 14.847656 130.859375 14.363281 130.460938 C 13.878906 130.058594 13.429688 129.617188 13.015625 129.144531 C 12.601562 128.671875 12.226562 128.167969 11.890625 127.632812 C 11.558594 127.097656 11.265625 126.542969 11.023438 125.960938 L 10.9375 125.753906 C 10.695312 125.1875 10.5 124.601562 10.347656 124.003906 C 10.199219 123.402344 10.097656 122.796875 10.042969 122.179688 C 9.988281 121.566406 9.980469 120.949219 10.023438 120.332031 C 10.0625 119.71875 10.152344 119.109375 10.289062 118.503906 C 10.429688 117.902344 10.609375 117.316406 10.839844 116.742188 C 11.070312 116.167969 11.34375 115.617188 11.65625 115.085938 C 11.972656 114.554688 12.328125 114.050781 12.722656 113.574219 C 13.117188 113.101562 13.546875 112.660156 14.011719 112.25 L 117.210938 16.617188 C 117.242188 16.585938 117.273438 16.558594 117.308594 16.535156 C 118.148438 15.792969 119.078125 15.175781 120.089844 14.695312 C 121.105469 14.210938 122.164062 13.875 123.273438 13.691406 C 124.378906 13.507812 125.492188 13.476562 126.609375 13.601562 C 127.722656 13.730469 128.800781 14.007812 129.839844 14.4375 C 130.875 14.867188 131.835938 15.429688 132.714844 16.128906 C 133.59375 16.824219 134.359375 17.632812 135.015625 18.546875 C 135.667969 19.457031 136.183594 20.445312 136.558594 21.503906 C 136.9375 22.558594 137.160156 23.648438 137.230469 24.769531 L 137.242188 24.894531 L 142.441406 165.527344 C 142.480469 166.152344 142.472656 166.777344 142.410156 167.402344 C 142.351562 168.023438 142.242188 168.640625 142.085938 169.246094 C 141.925781 169.855469 141.722656 170.445312 141.46875 171.019531 C 141.21875 171.59375 140.921875 172.144531 140.582031 172.671875 C 140.242188 173.199219 139.863281 173.699219 139.445312 174.164062 C 139.027344 174.632812 138.574219 175.0625 138.089844 175.457031 C 137.601562 175.851562 137.085938 176.207031 136.542969 176.519531 C 136 176.835938 135.433594 177.101562 134.847656 177.328125 Z M 134.847656 177.328125 " fill-opacity="1" fill-rule="nonzero"/></g></g></g></g></svg>