<svg xmlns="http://www.w3.org/2000/svg" xmlns:xlink="http://www.w3.org/1999/xlink" width="256" zoomAndPan="magnify" viewBox="0 0 192 191.999996" height="256" preserveAspectRatio="xMidYMid meet" version="1.0"><defs><clipPath id="775bd09f95"><path d="M 49 13 L 183 13 L 183 179 L 49 179 Z M 49 13 " clip-rule="nonzero"/></clipPath><clipPath id="5858a28f14"><path d="M 43.957031 -29.394531 L 221.394531 43.957031 L 148.042969 221.394531 L -29.394531 148.042969 Z M 43.957031 -29.394531 " clip-rule="nonzero"/></clipPath><clipPath id="57f055b0d0"><path d="M 43.957031 -29.394531 L 221.394531 43.957031 L 148.042969 221.394531 L -29.394531 148.042969 Z M 43.957031 -29.394531 " clip-rule="nonzero"/></clipPath><clipPath id="df60927d08"><path d="M 43.957031 -29.394531 L 221.394531 43.957031 L 148.042969 221.394531 L -29.394531 148.042969 Z M 43.957031 -29.394531 " clip-rule="nonzero"/></clipPath></defs><g clip-path="url(#775bd09f95)"><g clip-path="url(#5858a28f14)"><g clip-path="url(#57f055b0d0)"><g clip-path="url(#df60927d08)"><path fill="#000000" d="M 181.011719 125.933594 C 180.769531 126.511719 180.480469 127.070312 180.144531 127.605469 C 179.8125 128.136719 179.4375 128.640625 179.023438 129.117188 C 178.609375 129.589844 178.160156 130.027344 177.675781 130.429688 C 177.191406 130.832031 176.675781 131.195312 176.132812 131.515625 C 175.59375 131.835938 175.027344 132.109375 174.441406 132.339844 C 173.855469 132.570312 173.253906 132.753906 172.640625 132.886719 C 172.023438 133.019531 171.402344 133.105469 170.773438 133.140625 C 170.144531 133.175781 169.515625 133.160156 168.890625 133.09375 L 168.734375 133.078125 L 108.414062 125.867188 L 70.929688 173.671875 L 70.828125 173.792969 C 70.433594 174.285156 70 174.738281 69.53125 175.160156 C 69.0625 175.582031 68.566406 175.960938 68.035156 176.300781 C 67.503906 176.644531 66.953125 176.941406 66.375 177.191406 C 65.796875 177.445312 65.207031 177.648438 64.59375 177.808594 C 63.984375 177.964844 63.367188 178.074219 62.742188 178.132812 C 62.113281 178.191406 61.484375 178.199219 60.859375 178.160156 C 60.230469 178.117188 59.609375 178.027344 58.996094 177.886719 C 58.378906 177.746094 57.78125 177.558594 57.199219 177.320312 L 56.988281 177.234375 C 56.417969 177.003906 55.867188 176.730469 55.335938 176.414062 C 54.804688 176.097656 54.304688 175.742188 53.828125 175.34375 C 53.355469 174.949219 52.914062 174.519531 52.507812 174.054688 C 52.101562 173.589844 51.730469 173.097656 51.402344 172.574219 C 51.074219 172.050781 50.785156 171.507812 50.542969 170.9375 C 50.296875 170.371094 50.097656 169.789062 49.945312 169.191406 C 49.792969 168.59375 49.6875 167.984375 49.628906 167.371094 C 49.574219 166.753906 49.5625 166.140625 49.601562 165.523438 L 54.777344 24.917969 C 54.777344 24.875 54.78125 24.835938 54.789062 24.792969 C 54.855469 23.671875 55.078125 22.582031 55.453125 21.523438 C 55.824219 20.464844 56.335938 19.476562 56.988281 18.5625 C 57.640625 17.648438 58.402344 16.839844 59.28125 16.136719 C 60.160156 15.4375 61.117188 14.871094 62.152344 14.441406 C 63.191406 14.007812 64.265625 13.726562 65.382812 13.597656 C 66.496094 13.46875 67.609375 13.496094 68.71875 13.675781 C 69.824219 13.859375 70.886719 14.191406 71.902344 14.671875 C 72.917969 15.152344 73.847656 15.761719 74.691406 16.503906 L 74.785156 16.585938 L 178.019531 112.222656 C 178.492188 112.636719 178.925781 113.085938 179.328125 113.566406 C 179.726562 114.050781 180.085938 114.5625 180.402344 115.105469 C 180.722656 115.644531 180.996094 116.207031 181.226562 116.789062 C 181.453125 117.375 181.636719 117.972656 181.769531 118.585938 C 181.902344 119.199219 181.988281 119.816406 182.023438 120.445312 C 182.058594 121.070312 182.042969 121.695312 181.980469 122.320312 C 181.914062 122.941406 181.800781 123.558594 181.640625 124.164062 C 181.476562 124.769531 181.269531 125.359375 181.011719 125.933594 Z M 181.011719 125.933594 " fill-opacity="1" fill-rule="nonzero"/></g></g></g></g></svg>