<svg xmlns="http://www.w3.org/2000/svg" xmlns:xlink="http://www.w3.org/1999/xlink" width="256" zoomAndPan="magnify" viewBox="0 0 192 191.999996" height="256" preserveAspectRatio="xMidYMid meet" version="1.0"><defs><clipPath id="714c9eb68e"><path d="M 96 -39.765625 L 231.765625 96 L 96 231.765625 L -39.765625 96 Z M 96 -39.765625 " clip-rule="nonzero"/></clipPath><clipPath id="af4261f47a"><path d="M 25 32 L 167 32 L 167 185 L 25 185 Z M 25 32 " clip-rule="nonzero"/></clipPath><clipPath id="370ad327b9"><path d="M 96 -39.765625 L 231.765625 96 L 96 231.765625 L -39.765625 96 Z M 96 -39.765625 " clip-rule="nonzero"/></clipPath><clipPath id="47bf470209"><path d="M 96 231.765625 L -39.765625 96 L 96 -39.765625 L 231.765625 96 Z M 96 231.765625 " clip-rule="nonzero"/></clipPath><clipPath id="4d09595e9e"><path d="M 96 231.765625 L -39.765625 96 L 96 -39.765625 L 231.765625 96 Z M 96 231.765625 " clip-rule="nonzero"/></clipPath><clipPath id="08d7066ba4"><rect x="0" width="192" y="0" height="192"/></clipPath></defs><g clip-path="url(#714c9eb68e)"><g transform="matrix(1, 0, 0, 1, 0, 0)"><g clip-path="url(#08d7066ba4)"><g clip-path="url(#af4261f47a)"><g clip-path="url(#370ad327b9)"><g clip-path="url(#47bf470209)"><g clip-path="url(#4d09595e9e)"><path fill="#000000" d="M 28.957031 35.765625 C 29.402344 35.324219 29.886719 34.917969 30.398438 34.554688 C 30.910156 34.1875 31.449219 33.867188 32.015625 33.585938 C 32.578125 33.308594 33.164062 33.074219 33.765625 32.890625 C 34.367188 32.703125 34.976562 32.566406 35.601562 32.480469 C 36.226562 32.390625 36.851562 32.351562 37.480469 32.363281 C 38.113281 32.378906 38.734375 32.4375 39.355469 32.550781 C 39.976562 32.664062 40.582031 32.824219 41.175781 33.03125 C 41.769531 33.242188 42.34375 33.496094 42.898438 33.796875 L 43.035156 33.871094 L 95.984375 63.65625 L 148.933594 33.871094 L 149.070312 33.796875 C 149.625 33.496094 150.199219 33.242188 150.792969 33.035156 C 151.386719 32.824219 151.992188 32.664062 152.613281 32.550781 C 153.230469 32.441406 153.855469 32.378906 154.484375 32.367188 C 155.117188 32.355469 155.742188 32.390625 156.367188 32.480469 C 156.988281 32.570312 157.601562 32.707031 158.203125 32.890625 C 158.804688 33.078125 159.390625 33.308594 159.953125 33.589844 C 160.519531 33.867188 161.058594 34.191406 161.570312 34.554688 C 162.082031 34.917969 162.5625 35.324219 163.011719 35.765625 L 163.171875 35.925781 C 163.613281 36.355469 164.015625 36.820312 164.386719 37.316406 C 164.753906 37.8125 165.082031 38.335938 165.367188 38.882812 C 165.652344 39.429688 165.894531 39.996094 166.09375 40.582031 C 166.289062 41.167969 166.441406 41.761719 166.546875 42.371094 C 166.648438 42.980469 166.707031 43.59375 166.714844 44.210938 C 166.722656 44.828125 166.679688 45.445312 166.59375 46.054688 C 166.503906 46.667969 166.371094 47.269531 166.1875 47.859375 C 166.003906 48.449219 165.777344 49.019531 165.503906 49.574219 L 106.824219 177.453125 C 106.808594 177.492188 106.789062 177.527344 106.765625 177.566406 C 106.273438 178.574219 105.652344 179.496094 104.898438 180.332031 C 104.148438 181.164062 103.296875 181.882812 102.34375 182.476562 C 101.394531 183.074219 100.378906 183.527344 99.296875 183.835938 C 98.21875 184.148438 97.117188 184.304688 95.996094 184.304688 C 94.871094 184.304688 93.769531 184.152344 92.691406 183.84375 C 91.609375 183.535156 90.59375 183.085938 89.640625 182.492188 C 88.6875 181.898438 87.832031 181.1875 87.078125 180.351562 C 86.328125 179.519531 85.703125 178.597656 85.207031 177.589844 L 85.148438 177.480469 L 26.464844 49.574219 C 26.1875 49.011719 25.957031 48.429688 25.773438 47.832031 C 25.589844 47.230469 25.453125 46.621094 25.367188 46 C 25.28125 45.378906 25.242188 44.753906 25.257812 44.128906 C 25.269531 43.5 25.332031 42.878906 25.441406 42.261719 C 25.554688 41.644531 25.710938 41.039062 25.921875 40.445312 C 26.128906 39.855469 26.378906 39.285156 26.679688 38.730469 C 26.976562 38.179688 27.316406 37.65625 27.699219 37.15625 C 28.082031 36.660156 28.5 36.195312 28.957031 35.765625 Z M 28.957031 35.765625 " fill-opacity="1" fill-rule="nonzero"/></g></g></g></g></g></g></g></svg>