<svg xmlns="http://www.w3.org/2000/svg" xmlns:xlink="http://www.w3.org/1999/xlink" width="256" zoomAndPan="magnify" viewBox="0 0 192 191.999996" height="256" preserveAspectRatio="xMidYMid meet" version="1.0"><defs><clipPath id="903b150ebf"><rect x="0" width="192" y="0" height="192"/></clipPath></defs><g transform="matrix(1, 0, 0, 1, 0, 0)"><g clip-path="url(#903b150ebf)"><path fill="#000000" d="M 6 100.816406 C 6.003906 100.183594 6.058594 99.558594 6.164062 98.9375 C 6.269531 98.316406 6.421875 97.707031 6.621094 97.113281 C 6.824219 96.515625 7.074219 95.9375 7.367188 95.382812 C 7.660156 94.824219 7.996094 94.292969 8.375 93.792969 C 8.753906 93.289062 9.171875 92.820312 9.625 92.382812 C 10.078125 91.945312 10.5625 91.546875 11.082031 91.1875 C 11.597656 90.828125 12.140625 90.511719 12.710938 90.242188 C 13.277344 89.96875 13.863281 89.742188 14.46875 89.566406 L 14.617188 89.519531 L 73.117188 73.140625 L 89.496094 14.640625 L 89.542969 14.488281 C 89.722656 13.886719 89.945312 13.300781 90.21875 12.734375 C 90.492188 12.164062 90.808594 11.621094 91.167969 11.105469 C 91.527344 10.585938 91.921875 10.101562 92.359375 9.648438 C 92.796875 9.195312 93.265625 8.777344 93.769531 8.398438 C 94.273438 8.019531 94.804688 7.683594 95.359375 7.390625 C 95.917969 7.097656 96.492188 6.847656 97.089844 6.648438 C 97.6875 6.445312 98.296875 6.292969 98.917969 6.1875 C 99.539062 6.082031 100.164062 6.027344 100.792969 6.023438 L 101.015625 6.023438 C 101.636719 6.015625 102.25 6.058594 102.859375 6.148438 C 103.472656 6.238281 104.070312 6.378906 104.660156 6.5625 C 105.25 6.746094 105.824219 6.976562 106.375 7.25 C 106.929688 7.523438 107.457031 7.839844 107.960938 8.195312 C 108.464844 8.554688 108.941406 8.949219 109.382812 9.378906 C 109.824219 9.808594 110.230469 10.273438 110.601562 10.765625 C 110.96875 11.261719 111.300781 11.78125 111.589844 12.328125 C 111.875 12.875 112.121094 13.441406 112.320312 14.023438 L 161.25 145.941406 C 161.265625 145.980469 161.277344 146.019531 161.289062 146.0625 C 161.652344 147.125 161.867188 148.214844 161.925781 149.335938 C 161.984375 150.460938 161.886719 151.566406 161.636719 152.660156 C 161.382812 153.757812 160.984375 154.792969 160.441406 155.777344 C 159.898438 156.761719 159.230469 157.648438 158.4375 158.445312 C 157.644531 159.238281 156.757812 159.910156 155.773438 160.457031 C 154.792969 161 153.757812 161.402344 152.664062 161.65625 C 151.570312 161.910156 150.460938 162.011719 149.339844 161.953125 C 148.21875 161.898438 147.125 161.6875 146.0625 161.324219 L 145.941406 161.289062 L 14.003906 112.34375 C 13.410156 112.140625 12.835938 111.890625 12.28125 111.597656 C 11.726562 111.304688 11.199219 110.96875 10.699219 110.589844 C 10.199219 110.210938 9.730469 109.796875 9.296875 109.34375 C 8.863281 108.890625 8.464844 108.40625 8.109375 107.894531 C 7.75 107.378906 7.4375 106.835938 7.164062 106.273438 C 6.890625 105.707031 6.667969 105.125 6.488281 104.523438 C 6.308594 103.921875 6.179688 103.308594 6.097656 102.6875 C 6.015625 102.066406 5.984375 101.441406 6 100.816406 Z M 6 100.816406 " fill-opacity="1" fill-rule="nonzero"/></g></g></svg>