<svg xmlns="http://www.w3.org/2000/svg" xmlns:xlink="http://www.w3.org/1999/xlink" width="256" zoomAndPan="magnify" viewBox="0 0 192 191.999996" height="256" preserveAspectRatio="xMidYMid meet" version="1.0"><defs><clipPath id="f92a6f12d3"><path d="M 43.957031 -29.394531 L 221.394531 43.957031 L 148.042969 221.394531 L -29.394531 148.042969 Z M 43.957031 -29.394531 " clip-rule="nonzero"/></clipPath><clipPath id="616e5be67c"><path d="M 9 13 L 143 13 L 143 179 L 9 179 Z M 9 13 " clip-rule="nonzero"/></clipPath><clipPath id="c061c4aff2"><path d="M 43.957031 -29.394531 L 221.394531 43.957031 L 148.042969 221.394531 L -29.394531 148.042969 Z M 43.957031 -29.394531 " clip-rule="nonzero"/></clipPath><clipPath id="21e3ed67a9"><path d="M 148.042969 221.394531 L -29.394531 148.042969 L 43.957031 -29.394531 L 221.394531 43.957031 Z M 148.042969 221.394531 " clip-rule="nonzero"/></clipPath><clipPath id="9dc8686140"><path d="M 148.042969 221.394531 L -29.394531 148.042969 L 43.957031 -29.394531 L 221.394531 43.957031 Z M 148.042969 221.394531 " clip-rule="nonzero"/></clipPath><clipPath id="bfeac83326"><rect x="0" width="192" y="0" height="192"/></clipPath></defs><g clip-path="url(#f92a6f12d3)"><g transform="matrix(1, 0, 0, 1, 0, 0)"><g clip-path="url(#bfeac83326)"><g clip-path="url(#616e5be67c)"><g clip-path="url(#c061c4aff2)"><g clip-path="url(#21e3ed67a9)"><g clip-path="url(#9dc8686140)"><path fill="#000000" d="M 10.988281 66.066406 C 11.230469 65.488281 11.519531 64.929688 11.855469 64.394531 C 12.1875 63.863281 12.5625 63.359375 12.976562 62.882812 C 13.390625 62.410156 13.839844 61.972656 14.324219 61.570312 C 14.808594 61.167969 15.324219 60.804688 15.867188 60.484375 C 16.40625 60.164062 16.972656 59.890625 17.558594 59.660156 C 18.144531 59.429688 18.746094 59.246094 19.359375 59.113281 C 19.976562 58.980469 20.597656 58.894531 21.226562 58.859375 C 21.855469 58.824219 22.484375 58.839844 23.109375 58.90625 L 23.265625 58.921875 L 83.585938 66.132812 L 121.070312 18.328125 L 121.171875 18.207031 C 121.566406 17.714844 122 17.261719 122.46875 16.839844 C 122.9375 16.417969 123.433594 16.039062 123.964844 15.699219 C 124.496094 15.355469 125.046875 15.058594 125.625 14.808594 C 126.203125 14.554688 126.792969 14.351562 127.40625 14.191406 C 128.015625 14.035156 128.632812 13.925781 129.257812 13.867188 C 129.886719 13.808594 130.515625 13.800781 131.140625 13.839844 C 131.769531 13.882812 132.390625 13.972656 133.003906 14.113281 C 133.621094 14.253906 134.21875 14.441406 134.800781 14.679688 L 135.011719 14.765625 C 135.582031 14.996094 136.132812 15.269531 136.664062 15.585938 C 137.195312 15.902344 137.695312 16.257812 138.171875 16.65625 C 138.644531 17.050781 139.085938 17.480469 139.492188 17.945312 C 139.898438 18.410156 140.269531 18.902344 140.597656 19.425781 C 140.925781 19.949219 141.214844 20.492188 141.457031 21.0625 C 141.703125 21.628906 141.902344 22.210938 142.054688 22.808594 C 142.207031 23.40625 142.3125 24.015625 142.371094 24.628906 C 142.425781 25.246094 142.4375 25.859375 142.398438 26.476562 L 137.222656 167.082031 C 137.222656 167.125 137.21875 167.164062 137.210938 167.207031 C 137.144531 168.328125 136.921875 169.417969 136.546875 170.476562 C 136.175781 171.535156 135.664062 172.523438 135.011719 173.4375 C 134.359375 174.351562 133.597656 175.160156 132.71875 175.863281 C 131.839844 176.5625 130.882812 177.128906 129.847656 177.558594 C 128.808594 177.992188 127.734375 178.273438 126.617188 178.402344 C 125.503906 178.53125 124.390625 178.503906 123.28125 178.324219 C 122.175781 178.140625 121.113281 177.808594 120.097656 177.328125 C 119.082031 176.847656 118.152344 176.238281 117.308594 175.496094 L 117.214844 175.414062 L 13.980469 79.777344 C 13.507812 79.363281 13.070312 78.914062 12.671875 78.433594 C 12.273438 77.949219 11.914062 77.4375 11.597656 76.894531 C 11.277344 76.355469 11.003906 75.792969 10.773438 75.210938 C 10.546875 74.625 10.363281 74.027344 10.230469 73.414062 C 10.097656 72.800781 10.011719 72.183594 9.976562 71.554688 C 9.941406 70.929688 9.957031 70.304688 10.019531 69.679688 C 10.085938 69.058594 10.199219 68.441406 10.359375 67.835938 C 10.523438 67.230469 10.730469 66.640625 10.988281 66.066406 Z M 10.988281 66.066406 " fill-opacity="1" fill-rule="nonzero"/></g></g></g></g></g></g></g></svg>