<svg xmlns="http://www.w3.org/2000/svg" xmlns:xlink="http://www.w3.org/1999/xlink" width="256" zoomAndPan="magnify" viewBox="0 0 192 191.999996" height="256" preserveAspectRatio="xMidYMid meet" version="1.0"><defs><clipPath id="7214796cbc"><path d="M 148.019531 -29.402344 L 221.402344 148.019531 L 43.980469 221.402344 L -29.402344 43.980469 Z M 148.019531 -29.402344 " clip-rule="nonzero"/></clipPath><clipPath id="1c2d2f4827"><path d="M 49 13 L 183 13 L 183 179 L 49 179 Z M 49 13 " clip-rule="nonzero"/></clipPath><clipPath id="add5ec6ec3"><path d="M 148.019531 -29.402344 L 221.402344 148.019531 L 43.980469 221.402344 L -29.402344 43.980469 Z M 148.019531 -29.402344 " clip-rule="nonzero"/></clipPath><clipPath id="bba783d393"><path d="M 43.980469 221.402344 L -29.402344 43.980469 L 148.019531 -29.402344 L 221.402344 148.019531 Z M 43.980469 221.402344 " clip-rule="nonzero"/></clipPath><clipPath id="8ab0690451"><path d="M 43.980469 221.402344 L -29.402344 43.980469 L 148.019531 -29.402344 L 221.402344 148.019531 Z M 43.980469 221.402344 " clip-rule="nonzero"/></clipPath><clipPath id="505d2ff753"><rect x="0" width="192" y="0" height="192"/></clipPath></defs><g clip-path="url(#7214796cbc)"><g transform="matrix(1, 0, 0, 1, 0, 0)"><g clip-path="url(#505d2ff753)"><g clip-path="url(#1c2d2f4827)"><g clip-path="url(#add5ec6ec3)"><g clip-path="url(#bba783d393)"><g clip-path="url(#8ab0690451)"><path fill="#000000" d="M 57.152344 14.671875 C 57.734375 14.4375 58.332031 14.25 58.949219 14.109375 C 59.5625 13.96875 60.183594 13.875 60.8125 13.835938 C 61.441406 13.792969 62.066406 13.800781 62.695312 13.859375 C 63.320312 13.917969 63.941406 14.027344 64.550781 14.183594 C 65.160156 14.34375 65.753906 14.546875 66.328125 14.800781 C 66.90625 15.050781 67.460938 15.347656 67.988281 15.691406 C 68.519531 16.03125 69.019531 16.410156 69.488281 16.832031 C 69.957031 17.253906 70.386719 17.707031 70.785156 18.199219 L 70.882812 18.320312 L 108.378906 66.117188 L 168.699219 58.894531 L 168.851562 58.878906 C 169.480469 58.8125 170.105469 58.796875 170.734375 58.832031 C 171.363281 58.867188 171.988281 58.953125 172.601562 59.085938 C 173.21875 59.21875 173.816406 59.402344 174.402344 59.632812 C 174.992188 59.863281 175.554688 60.136719 176.097656 60.457031 C 176.640625 60.777344 177.152344 61.140625 177.636719 61.539062 C 178.121094 61.941406 178.570312 62.382812 178.984375 62.855469 C 179.398438 63.328125 179.773438 63.832031 180.109375 64.367188 C 180.441406 64.902344 180.734375 65.457031 180.976562 66.039062 L 181.0625 66.246094 C 181.304688 66.8125 181.5 67.398438 181.652344 67.996094 C 181.800781 68.597656 181.902344 69.203125 181.957031 69.820312 C 182.011719 70.433594 182.019531 71.050781 181.976562 71.667969 C 181.9375 72.28125 181.847656 72.890625 181.710938 73.496094 C 181.570312 74.097656 181.390625 74.683594 181.160156 75.257812 C 180.929688 75.832031 180.65625 76.382812 180.34375 76.914062 C 180.027344 77.445312 179.671875 77.949219 179.277344 78.425781 C 178.882812 78.898438 178.453125 79.339844 177.988281 79.75 L 74.789062 175.382812 C 74.757812 175.414062 74.726562 175.441406 74.691406 175.464844 C 73.851562 176.207031 72.921875 176.824219 71.910156 177.304688 C 70.894531 177.789062 69.835938 178.125 68.726562 178.308594 C 67.621094 178.492188 66.507812 178.523438 65.390625 178.398438 C 64.277344 178.269531 63.199219 177.992188 62.160156 177.5625 C 61.125 177.132812 60.164062 176.570312 59.285156 175.871094 C 58.40625 175.175781 57.640625 174.367188 56.984375 173.453125 C 56.332031 172.542969 55.816406 171.554688 55.441406 170.496094 C 55.0625 169.441406 54.839844 168.351562 54.769531 167.230469 L 54.757812 167.105469 L 49.558594 26.472656 C 49.519531 25.847656 49.527344 25.222656 49.589844 24.597656 C 49.648438 23.976562 49.757812 23.359375 49.914062 22.753906 C 50.074219 22.144531 50.277344 21.554688 50.53125 20.980469 C 50.78125 20.40625 51.078125 19.855469 51.417969 19.328125 C 51.757812 18.800781 52.136719 18.300781 52.554688 17.835938 C 52.972656 17.367188 53.425781 16.9375 53.910156 16.542969 C 54.398438 16.148438 54.914062 15.792969 55.457031 15.480469 C 56 15.164062 56.566406 14.898438 57.152344 14.671875 Z M 57.152344 14.671875 " fill-opacity="1" fill-rule="nonzero"/></g></g></g></g></g></g></g></svg>