<svg xmlns="http://www.w3.org/2000/svg" xmlns:xlink="http://www.w3.org/1999/xlink" width="256" zoomAndPan="magnify" viewBox="0 0 192 191.999996" height="256" preserveAspectRatio="xMidYMid meet" version="1.0"><defs><clipPath id="b54a39ef24"><rect x="0" width="192" y="0" height="192"/></clipPath></defs><g transform="matrix(1, 0, 0, 1, 0, 0)"><g clip-path="url(#b54a39ef24)"><path fill="#000000" d="M 186 100.816406 C 185.996094 100.183594 185.941406 99.558594 185.835938 98.9375 C 185.730469 98.316406 185.578125 97.707031 185.378906 97.113281 C 185.175781 96.515625 184.925781 95.9375 184.632812 95.382812 C 184.339844 94.824219 184.003906 94.292969 183.625 93.792969 C 183.246094 93.289062 182.828125 92.820312 182.375 92.382812 C 181.921875 91.945312 181.4375 91.546875 180.917969 91.1875 C 180.402344 90.828125 179.859375 90.511719 179.289062 90.242188 C 178.722656 89.96875 178.136719 89.742188 177.53125 89.566406 L 177.382812 89.519531 L 118.882812 73.140625 L 102.503906 14.640625 L 102.457031 14.488281 C 102.277344 13.886719 102.054688 13.300781 101.78125 12.734375 C 101.507812 12.164062 101.191406 11.621094 100.832031 11.105469 C 100.472656 10.585938 100.078125 10.101562 99.640625 9.648438 C 99.203125 9.195312 98.734375 8.777344 98.230469 8.398438 C 97.726562 8.019531 97.195312 7.683594 96.640625 7.390625 C 96.082031 7.097656 95.507812 6.847656 94.910156 6.648438 C 94.3125 6.445312 93.703125 6.292969 93.082031 6.1875 C 92.460938 6.082031 91.835938 6.027344 91.207031 6.023438 L 90.984375 6.023438 C 90.363281 6.015625 89.75 6.058594 89.140625 6.148438 C 88.527344 6.238281 87.929688 6.378906 87.339844 6.5625 C 86.75 6.746094 86.175781 6.976562 85.625 7.25 C 85.070312 7.523438 84.542969 7.839844 84.039062 8.195312 C 83.535156 8.554688 83.058594 8.949219 82.617188 9.378906 C 82.175781 9.808594 81.769531 10.273438 81.398438 10.765625 C 81.03125 11.261719 80.699219 11.78125 80.410156 12.328125 C 80.125 12.875 79.878906 13.441406 79.679688 14.023438 L 30.75 145.941406 C 30.734375 145.980469 30.722656 146.019531 30.710938 146.0625 C 30.347656 147.125 30.132812 148.214844 30.074219 149.335938 C 30.015625 150.460938 30.113281 151.566406 30.363281 152.660156 C 30.617188 153.757812 31.015625 154.792969 31.558594 155.777344 C 32.101562 156.761719 32.769531 157.648438 33.5625 158.445312 C 34.355469 159.238281 35.242188 159.910156 36.226562 160.457031 C 37.207031 161 38.242188 161.402344 39.335938 161.65625 C 40.429688 161.910156 41.539062 162.011719 42.660156 161.953125 C 43.78125 161.898438 44.875 161.6875 45.9375 161.324219 L 46.058594 161.289062 L 177.996094 112.34375 C 178.589844 112.140625 179.164062 111.890625 179.71875 111.597656 C 180.273438 111.304688 180.800781 110.96875 181.300781 110.589844 C 181.800781 110.210938 182.269531 109.796875 182.703125 109.34375 C 183.136719 108.890625 183.535156 108.40625 183.890625 107.894531 C 184.25 107.378906 184.5625 106.835938 184.835938 106.273438 C 185.109375 105.707031 185.332031 105.125 185.511719 104.523438 C 185.691406 103.921875 185.820312 103.308594 185.902344 102.6875 C 185.984375 102.066406 186.015625 101.441406 186 100.816406 Z M 186 100.816406 " fill-opacity="1" fill-rule="nonzero"/></g></g></svg>