<svg xmlns="http://www.w3.org/2000/svg" xmlns:xlink="http://www.w3.org/1999/xlink" width="256" zoomAndPan="magnify" viewBox="0 0 192 191.999996" height="256" preserveAspectRatio="xMidYMid meet" version="1.0"><defs><clipPath id="31a22640ad"><path d="M 96 -39.765625 L 231.765625 96 L 96 231.765625 L -39.765625 96 Z M 96 -39.765625 " clip-rule="nonzero"/></clipPath><clipPath id="089b8cf4d5"><path d="M 7 25 L 160 25 L 160 167 L 7 167 Z M 7 25 " clip-rule="nonzero"/></clipPath><clipPath id="7c43089aae"><path d="M 96 -39.765625 L 231.765625 96 L 96 231.765625 L -39.765625 96 Z M 96 -39.765625 " clip-rule="nonzero"/></clipPath><clipPath id="0f02aedc43"><path d="M -39.765625 96 L 96 231.765625 L 231.765625 96 L 96 -39.765625 Z M -39.765625 96 " clip-rule="nonzero"/></clipPath><clipPath id="3f6d8e3a7a"><path d="M -39.765625 96 L 96 231.765625 L 231.765625 96 L 96 -39.765625 Z M -39.765625 96 " clip-rule="nonzero"/></clipPath><clipPath id="29ef726e94"><rect x="0" width="192" y="0" height="192"/></clipPath></defs><g clip-path="url(#31a22640ad)"><g transform="matrix(1, 0, 0, 1, 0, 0)"><g clip-path="url(#29ef726e94)"><g clip-path="url(#089b8cf4d5)"><g clip-path="url(#7c43089aae)"><g clip-path="url(#0f02aedc43)"><g clip-path="url(#3f6d8e3a7a)"><path fill="#000000" d="M 156.234375 163.042969 C 156.675781 162.597656 157.082031 162.113281 157.445312 161.601562 C 157.8125 161.089844 158.132812 160.550781 158.414062 159.984375 C 158.691406 159.421875 158.925781 158.835938 159.109375 158.234375 C 159.296875 157.632812 159.433594 157.023438 159.519531 156.398438 C 159.609375 155.773438 159.648438 155.148438 159.636719 154.519531 C 159.621094 153.886719 159.5625 153.265625 159.449219 152.644531 C 159.335938 152.023438 159.175781 151.417969 158.96875 150.824219 C 158.757812 150.230469 158.503906 149.65625 158.203125 149.101562 L 158.128906 148.964844 L 128.34375 96.015625 L 158.128906 43.066406 L 158.203125 42.929688 C 158.503906 42.375 158.757812 41.800781 158.964844 41.207031 C 159.175781 40.613281 159.335938 40.007812 159.449219 39.386719 C 159.558594 38.769531 159.621094 38.144531 159.632812 37.515625 C 159.644531 36.882812 159.609375 36.257812 159.519531 35.632812 C 159.429688 35.011719 159.292969 34.398438 159.109375 33.796875 C 158.921875 33.195312 158.691406 32.609375 158.410156 32.046875 C 158.132812 31.480469 157.808594 30.941406 157.445312 30.429688 C 157.082031 29.917969 156.675781 29.4375 156.234375 28.988281 L 156.074219 28.828125 C 155.644531 28.386719 155.179688 27.984375 154.683594 27.613281 C 154.1875 27.246094 153.664062 26.917969 153.117188 26.632812 C 152.570312 26.347656 152.003906 26.105469 151.417969 25.90625 C 150.832031 25.710938 150.238281 25.558594 149.628906 25.453125 C 149.019531 25.351562 148.40625 25.292969 147.789062 25.285156 C 147.171875 25.277344 146.554688 25.320312 145.945312 25.40625 C 145.332031 25.496094 144.730469 25.628906 144.140625 25.8125 C 143.550781 25.996094 142.980469 26.222656 142.425781 26.496094 L 14.546875 85.175781 C 14.507812 85.191406 14.472656 85.210938 14.433594 85.234375 C 13.425781 85.726562 12.503906 86.347656 11.667969 87.101562 C 10.835938 87.851562 10.117188 88.703125 9.523438 89.65625 C 8.925781 90.605469 8.472656 91.621094 8.164062 92.703125 C 7.851562 93.78125 7.695312 94.882812 7.695312 96.003906 C 7.695312 97.128906 7.847656 98.230469 8.15625 99.308594 C 8.464844 100.390625 8.914062 101.40625 9.507812 102.359375 C 10.101562 103.3125 10.8125 104.167969 11.648438 104.921875 C 12.480469 105.671875 13.402344 106.296875 14.410156 106.792969 L 14.519531 106.851562 L 142.425781 165.535156 C 142.988281 165.8125 143.570312 166.042969 144.167969 166.226562 C 144.769531 166.410156 145.378906 166.546875 146 166.632812 C 146.621094 166.71875 147.246094 166.757812 147.871094 166.742188 C 148.5 166.730469 149.121094 166.667969 149.738281 166.558594 C 150.355469 166.445312 150.960938 166.289062 151.554688 166.078125 C 152.144531 165.871094 152.714844 165.621094 153.269531 165.320312 C 153.820312 165.023438 154.34375 164.683594 154.84375 164.300781 C 155.339844 163.917969 155.804688 163.5 156.234375 163.042969 Z M 156.234375 163.042969 " fill-opacity="1" fill-rule="nonzero"/></g></g></g></g></g></g></g></svg>