<svg xmlns="http://www.w3.org/2000/svg" xmlns:xlink="http://www.w3.org/1999/xlink" width="256" zoomAndPan="magnify" viewBox="0 0 192 191.999996" height="256" preserveAspectRatio="xMidYMid meet" version="1.0"><defs><clipPath id="1c251fe820"><path d="M 148.019531 -29.402344 L 221.402344 148.019531 L 43.980469 221.402344 L -29.402344 43.980469 Z M 148.019531 -29.402344 " clip-rule="nonzero"/></clipPath><clipPath id="faa718d5a1"><path d="M 13 49 L 179 49 L 179 183 L 13 183 Z M 13 49 " clip-rule="nonzero"/></clipPath><clipPath id="07bdae7cfb"><path d="M 148.019531 -29.402344 L 221.402344 148.019531 L 43.980469 221.402344 L -29.402344 43.980469 Z M 148.019531 -29.402344 " clip-rule="nonzero"/></clipPath><clipPath id="1d131f5aec"><path d="M -29.402344 43.980469 L 43.980469 221.402344 L 221.402344 148.019531 L 148.019531 -29.402344 Z M -29.402344 43.980469 " clip-rule="nonzero"/></clipPath><clipPath id="a829b76b56"><path d="M -29.402344 43.980469 L 43.980469 221.402344 L 221.402344 148.019531 L 148.019531 -29.402344 Z M -29.402344 43.980469 " clip-rule="nonzero"/></clipPath><clipPath id="9202d6641f"><rect x="0" width="192" y="0" height="192"/></clipPath></defs><g clip-path="url(#1c251fe820)"><g transform="matrix(1, 0, 0, 1, 0, 0)"><g clip-path="url(#9202d6641f)"><g clip-path="url(#faa718d5a1)"><g clip-path="url(#07bdae7cfb)"><g clip-path="url(#1d131f5aec)"><g clip-path="url(#a829b76b56)"><path fill="#000000" d="M 125.949219 181.007812 C 126.53125 180.761719 127.085938 180.472656 127.621094 180.140625 C 128.15625 179.804688 128.660156 179.429688 129.132812 179.015625 C 129.609375 178.601562 130.046875 178.152344 130.449219 177.667969 C 130.851562 177.183594 131.210938 176.667969 131.53125 176.128906 C 131.851562 175.585938 132.128906 175.019531 132.355469 174.433594 C 132.585938 173.847656 132.769531 173.246094 132.902344 172.632812 C 133.039062 172.015625 133.121094 171.394531 133.15625 170.765625 C 133.191406 170.136719 133.175781 169.507812 133.109375 168.882812 L 133.09375 168.726562 L 125.871094 108.40625 L 173.667969 70.910156 L 173.789062 70.8125 C 174.277344 70.417969 174.734375 69.984375 175.15625 69.515625 C 175.574219 69.046875 175.957031 68.546875 176.296875 68.019531 C 176.636719 67.488281 176.933594 66.933594 177.1875 66.359375 C 177.4375 65.78125 177.644531 65.1875 177.800781 64.578125 C 177.960938 63.96875 178.066406 63.351562 178.125 62.722656 C 178.183594 62.097656 178.195312 61.46875 178.152344 60.839844 C 178.109375 60.210938 178.019531 59.589844 177.878906 58.976562 C 177.738281 58.363281 177.550781 57.765625 177.3125 57.179688 L 177.226562 56.972656 C 176.996094 56.398438 176.722656 55.847656 176.40625 55.316406 C 176.089844 54.789062 175.734375 54.285156 175.335938 53.8125 C 174.941406 53.335938 174.511719 52.898438 174.046875 52.492188 C 173.582031 52.082031 173.085938 51.714844 172.566406 51.386719 C 172.042969 51.058594 171.496094 50.769531 170.929688 50.527344 C 170.363281 50.28125 169.777344 50.082031 169.179688 49.929688 C 168.582031 49.777344 167.976562 49.671875 167.359375 49.617188 C 166.746094 49.558594 166.128906 49.546875 165.511719 49.585938 L 24.910156 54.792969 C 24.867188 54.792969 24.828125 54.796875 24.785156 54.804688 C 23.664062 54.871094 22.574219 55.09375 21.515625 55.46875 C 20.457031 55.839844 19.46875 56.355469 18.554688 57.003906 C 17.640625 57.65625 16.832031 58.421875 16.128906 59.296875 C 15.429688 60.175781 14.863281 61.132812 14.433594 62.171875 C 14 63.207031 13.722656 64.285156 13.589844 65.398438 C 13.460938 66.515625 13.488281 67.625 13.671875 68.734375 C 13.855469 69.84375 14.1875 70.90625 14.667969 71.917969 C 15.148438 72.933594 15.757812 73.863281 16.5 74.707031 L 16.582031 74.804688 L 112.238281 178.019531 C 112.652344 178.488281 113.101562 178.925781 113.585938 179.324219 C 114.070312 179.722656 114.582031 180.082031 115.121094 180.398438 C 115.664062 180.71875 116.222656 180.992188 116.808594 181.21875 C 117.390625 181.449219 117.992188 181.628906 118.605469 181.765625 C 119.214844 181.898438 119.835938 181.980469 120.460938 182.015625 C 121.089844 182.050781 121.714844 182.039062 122.335938 181.972656 C 122.960938 181.910156 123.574219 181.796875 124.183594 181.632812 C 124.789062 181.472656 125.378906 181.261719 125.949219 181.007812 Z M 125.949219 181.007812 " fill-opacity="1" fill-rule="nonzero"/></g></g></g></g></g></g></g></svg>