<svg xmlns="http://www.w3.org/2000/svg" xmlns:xlink="http://www.w3.org/1999/xlink" width="256" zoomAndPan="magnify" viewBox="0 0 192 191.999996" height="256" preserveAspectRatio="xMidYMid meet" version="1.0"><defs><clipPath id="5de9383956"><path d="M 43.957031 -29.394531 L 221.394531 43.957031 L 148.042969 221.394531 L -29.394531 148.042969 Z M 43.957031 -29.394531 " clip-rule="nonzero"/></clipPath><clipPath id="7200ecd7b7"><path d="M 13 9 L 179 9 L 179 143 L 13 143 Z M 13 9 " clip-rule="nonzero"/></clipPath><clipPath id="d3ba9ab37a"><path d="M 43.957031 -29.394531 L 221.394531 43.957031 L 148.042969 221.394531 L -29.394531 148.042969 Z M 43.957031 -29.394531 " clip-rule="nonzero"/></clipPath><clipPath id="b803a5b1fd"><path d="M -29.394531 148.042969 L 148.042969 221.394531 L 221.394531 43.957031 L 43.957031 -29.394531 Z M -29.394531 148.042969 " clip-rule="nonzero"/></clipPath><clipPath id="ee7d774251"><path d="M -29.394531 148.042969 L 148.042969 221.394531 L 221.394531 43.957031 L 43.957031 -29.394531 Z M -29.394531 148.042969 " clip-rule="nonzero"/></clipPath><clipPath id="bd8e1bd0d7"><rect x="0" width="192" y="0" height="192"/></clipPath></defs><g clip-path="url(#5de9383956)"><g transform="matrix(1, 0, 0, 1, 0, 0)"><g clip-path="url(#bd8e1bd0d7)"><g clip-path="url(#7200ecd7b7)"><g clip-path="url(#d3ba9ab37a)"><g clip-path="url(#b803a5b1fd)"><g clip-path="url(#ee7d774251)"><path fill="#000000" d="M 177.335938 134.832031 C 177.570312 134.246094 177.757812 133.648438 177.898438 133.035156 C 178.039062 132.421875 178.132812 131.800781 178.171875 131.171875 C 178.214844 130.542969 178.207031 129.914062 178.148438 129.289062 C 178.089844 128.660156 177.980469 128.042969 177.820312 127.433594 C 177.664062 126.824219 177.457031 126.230469 177.207031 125.652344 C 176.953125 125.078125 176.65625 124.523438 176.316406 123.992188 C 175.976562 123.464844 175.59375 122.964844 175.171875 122.496094 C 174.753906 122.027344 174.296875 121.597656 173.808594 121.199219 L 173.683594 121.101562 L 125.878906 83.617188 L 133.089844 23.292969 L 133.105469 23.140625 C 133.171875 22.511719 133.1875 21.886719 133.152344 21.257812 C 133.117188 20.628906 133.03125 20.003906 132.898438 19.390625 C 132.765625 18.773438 132.582031 18.175781 132.351562 17.589844 C 132.121094 17.003906 131.847656 16.4375 131.527344 15.894531 C 131.207031 15.355469 130.84375 14.839844 130.441406 14.355469 C 130.039062 13.871094 129.601562 13.421875 129.128906 13.007812 C 128.652344 12.59375 128.148438 12.21875 127.613281 11.882812 C 127.082031 11.550781 126.523438 11.261719 125.945312 11.015625 L 125.734375 10.929688 C 125.167969 10.6875 124.582031 10.492188 123.984375 10.34375 C 123.386719 10.195312 122.777344 10.089844 122.164062 10.035156 C 121.546875 9.980469 120.929688 9.976562 120.316406 10.015625 C 119.699219 10.058594 119.089844 10.148438 118.488281 10.285156 C 117.886719 10.421875 117.296875 10.605469 116.722656 10.835938 C 116.148438 11.066406 115.597656 11.339844 115.066406 11.652344 C 114.535156 11.96875 114.035156 12.324219 113.558594 12.71875 C 113.082031 13.113281 112.640625 13.542969 112.234375 14.007812 L 16.621094 117.226562 C 16.589844 117.257812 16.5625 117.289062 16.539062 117.324219 C 15.796875 118.164062 15.183594 119.09375 14.699219 120.109375 C 14.214844 121.121094 13.882812 122.183594 13.695312 123.289062 C 13.511719 124.398438 13.484375 125.507812 13.609375 126.625 C 13.738281 127.742188 14.015625 128.816406 14.445312 129.855469 C 14.871094 130.894531 15.4375 131.851562 16.136719 132.730469 C 16.832031 133.609375 17.640625 134.378906 18.554688 135.03125 C 19.464844 135.683594 20.453125 136.199219 21.511719 136.574219 C 22.570312 136.953125 23.660156 137.175781 24.777344 137.246094 L 24.902344 137.257812 L 165.535156 142.425781 C 166.160156 142.46875 166.785156 142.457031 167.410156 142.394531 C 168.035156 142.335938 168.652344 142.226562 169.257812 142.070312 C 169.863281 141.910156 170.453125 141.707031 171.03125 141.453125 C 171.605469 141.203125 172.15625 140.90625 172.683594 140.566406 C 173.210938 140.226562 173.707031 139.847656 174.171875 139.429688 C 174.640625 139.011719 175.070312 138.558594 175.46875 138.070312 C 175.863281 137.585938 176.214844 137.070312 176.53125 136.527344 C 176.84375 135.980469 177.109375 135.417969 177.335938 134.832031 Z M 177.335938 134.832031 " fill-opacity="1" fill-rule="nonzero"/></g></g></g></g></g></g></g></svg>